<?xml version="1.0" encoding="utf-8"?>
<!-- Generator: Adobe Illustrator 14.0.0, SVG Export Plug-In . SVG Version: 6.00 Build 43363)  -->
<!DOCTYPE svg PUBLIC "-//W3C//DTD SVG 1.1//EN" "http://www.w3.org/Graphics/SVG/1.1/DTD/svg11.dtd">
<svg version="1.1" id="v" xmlns="http://www.w3.org/2000/svg" xmlns:xlink="http://www.w3.org/1999/xlink" x="0px" y="0px"
	 width="50px" height="50px" viewBox="0 0 50 50" enable-background="new 0 0 50 50" xml:space="preserve">
<g>
	<g>
		<path fill="#716357" d="M25,38.1H11c-0.607,0-1.1-0.492-1.1-1.1s0.493-1.1,1.1-1.1h14c0.607,0,1.1,0.492,1.1,1.1
			S25.607,38.1,25,38.1L25,38.1z"/>
	</g>
	<g>
		<path fill="#716357" d="M34,41.1c-0.281,0-0.563-0.107-0.777-0.322l-3-3c-0.43-0.429-0.43-1.126,0-1.555
			c0.428-0.43,1.127-0.43,1.555,0L34,38.444l5.223-5.222c0.428-0.43,1.127-0.43,1.555,0c0.43,0.429,0.43,1.126,0,1.555l-6,6
			C34.563,40.992,34.281,41.1,34,41.1L34,41.1z"/>
	</g>
	<g>
		<path fill="#716357" d="M25,27.1H11c-0.607,0-1.1-0.492-1.1-1.1s0.493-1.1,1.1-1.1h14c0.607,0,1.1,0.493,1.1,1.1
			S25.607,27.1,25,27.1L25,27.1z"/>
	</g>
	<g>
		<path fill="#716357" d="M33,30.1c-0.281,0-0.563-0.107-0.777-0.322l-3-3c-0.43-0.429-0.43-1.125,0-1.555
			c0.428-0.43,1.127-0.43,1.555,0L33,27.444l6.223-6.222c0.428-0.43,1.127-0.43,1.555,0c0.43,0.43,0.43,1.126,0,1.556l-7,7
			C33.563,29.992,33.281,30.1,33,30.1L33,30.1z"/>
	</g>
	<g>
		<path fill="#716357" d="M25,16.1H11c-0.607,0-1.1-0.493-1.1-1.1s0.493-1.1,1.1-1.1h14c0.607,0,1.1,0.493,1.1,1.1
			S25.607,16.1,25,16.1L25,16.1z"/>
	</g>
	<g>
		<path fill="#716357" d="M33,19.1c-0.281,0-0.563-0.107-0.777-0.322l-3-3c-0.43-0.43-0.43-1.126,0-1.556
			c0.428-0.43,1.127-0.43,1.555,0L33,16.444l6.223-6.222c0.428-0.43,1.127-0.43,1.555,0c0.43,0.43,0.43,1.126,0,1.556l-7,7
			C33.563,18.993,33.281,19.1,33,19.1L33,19.1z"/>
	</g>
</g>
</svg>
