<?xml version="1.0" encoding="utf-8"?>
<!-- Generator: Adobe Illustrator 14.0.0, SVG Export Plug-In . SVG Version: 6.00 Build 43363)  -->
<!DOCTYPE svg PUBLIC "-//W3C//DTD SVG 1.1//EN" "http://www.w3.org/Graphics/SVG/1.1/DTD/svg11.dtd">
<svg version="1.1" id="Layer_1" xmlns="http://www.w3.org/2000/svg" xmlns:xlink="http://www.w3.org/1999/xlink" x="0px" y="0px"
	 width="20px" height="20px" viewBox="10 10 20 20" enable-background="new 10 10 20 20" xml:space="preserve">
<path fill="#808080" d="M21.414,20l5.293-5.293c0.391-0.391,0.391-1.023,0-1.414s-1.023-0.391-1.414,0L20,18.586l-5.293-5.293
	c-0.391-0.391-1.023-0.391-1.414,0s-0.391,1.023,0,1.414L18.586,20l-5.293,5.293c-0.391,0.391-0.391,1.023,0,1.414
	C13.488,26.902,13.744,27,14,27s0.512-0.098,0.707-0.293L20,21.414l5.293,5.293C25.488,26.902,25.744,27,26,27
	s0.512-0.098,0.707-0.293c0.391-0.391,0.391-1.023,0-1.414L21.414,20z"/>
</svg>
