<?xml version="1.0" encoding="utf-8"?>
<!-- Generator: Adobe Illustrator 14.0.0, SVG Export Plug-In . SVG Version: 6.00 Build 43363)  -->
<!DOCTYPE svg PUBLIC "-//W3C//DTD SVG 1.1//EN" "http://www.w3.org/Graphics/SVG/1.1/DTD/svg11.dtd">
<svg version="1.1" id="settings" xmlns="http://www.w3.org/2000/svg" xmlns:xlink="http://www.w3.org/1999/xlink" x="0px" y="0px"
	 width="50px" height="50px" viewBox="0 0 50 50" enable-background="new 0 0 50 50" xml:space="preserve">
<path fill="#716357" d="M25.073,43.1c-1.215,0-2.433-0.122-3.62-0.363c-0.513-0.104-0.881-0.555-0.881-1.078v-5.189
	c-1.139-0.448-2.201-1.065-3.171-1.843l-4.5,2.598c-0.452,0.26-1.026,0.169-1.373-0.224c-1.628-1.835-2.848-3.944-3.624-6.268
	c-0.166-0.496,0.041-1.04,0.494-1.301l4.496-2.597c-0.094-0.614-0.141-1.229-0.141-1.835s0.047-1.221,0.141-1.836l-4.496-2.595
	c-0.453-0.261-0.659-0.805-0.494-1.301c0.775-2.322,1.995-4.431,3.624-6.269c0.346-0.392,0.92-0.484,1.374-0.223l4.5,2.599
	c0.97-0.778,2.031-1.396,3.171-1.843V8.341c0-0.523,0.368-0.974,0.881-1.078c2.368-0.481,4.872-0.481,7.239,0
	c0.513,0.104,0.881,0.555,0.881,1.078v5.191c1.14,0.448,2.202,1.065,3.172,1.843l4.5-2.598c0.453-0.262,1.026-0.167,1.373,0.223
	c1.629,1.836,2.848,3.945,3.623,6.268c0.166,0.496-0.04,1.04-0.493,1.301l-4.496,2.595c0.094,0.615,0.141,1.229,0.141,1.836
	s-0.047,1.221-0.141,1.835l4.496,2.597c0.453,0.261,0.659,0.805,0.493,1.301c-0.776,2.323-1.995,4.433-3.623,6.268
	c-0.347,0.392-0.92,0.483-1.373,0.224l-4.501-2.598c-0.97,0.777-2.031,1.395-3.171,1.843v5.189c0,0.523-0.368,0.974-0.881,1.078
	C27.506,42.978,26.288,43.1,25.073,43.1L25.073,43.1z M22.773,40.733c1.521,0.221,3.08,0.221,4.601,0v-5.041
	c0-0.479,0.31-0.903,0.767-1.048c1.382-0.439,2.64-1.171,3.739-2.173c0.355-0.322,0.878-0.378,1.291-0.141l4.375,2.525
	c0.961-1.212,1.732-2.546,2.303-3.981l-4.369-2.523c-0.415-0.239-0.627-0.719-0.524-1.187c0.157-0.725,0.238-1.453,0.238-2.165
	c0-0.712-0.081-1.441-0.239-2.166c-0.102-0.468,0.11-0.948,0.525-1.187l4.369-2.522c-0.57-1.435-1.342-2.769-2.303-3.981
	l-4.375,2.526c-0.413,0.24-0.936,0.184-1.291-0.14c-1.1-1.003-2.357-1.734-3.739-2.173c-0.457-0.145-0.767-0.569-0.767-1.048V9.266
	c-1.52-0.22-3.083-0.22-4.601,0v5.042c0,0.479-0.31,0.903-0.767,1.048c-1.382,0.439-2.64,1.17-3.739,2.173
	c-0.354,0.323-0.876,0.381-1.292,0.14l-4.375-2.527c-0.961,1.213-1.732,2.547-2.303,3.982l4.369,2.522
	c0.415,0.239,0.627,0.719,0.525,1.187c-0.158,0.725-0.238,1.454-0.238,2.166c0,0.712,0.08,1.44,0.238,2.165
	c0.102,0.468-0.11,0.947-0.525,1.187l-4.369,2.523c0.57,1.436,1.341,2.77,2.302,3.981l4.375-2.525
	c0.415-0.238,0.937-0.182,1.291,0.141c1.1,1.002,2.358,1.733,3.739,2.173c0.457,0.145,0.767,0.568,0.767,1.048V40.733L22.773,40.733
	z M25.073,30.822c-3.21,0-5.823-2.611-5.823-5.822c0-3.21,2.612-5.823,5.823-5.823c3.21,0,5.821,2.612,5.821,5.823
	C30.895,28.211,28.283,30.822,25.073,30.822L25.073,30.822z M25.073,21.377c-1.998,0-3.623,1.625-3.623,3.623
	c0,1.997,1.625,3.623,3.623,3.623c1.997,0,3.622-1.626,3.622-3.623C28.695,23.002,27.07,21.377,25.073,21.377L25.073,21.377z"/>
</svg>
