<?xml version="1.0" encoding="utf-8"?>
<!-- Generator: Adobe Illustrator 14.0.0, SVG Export Plug-In . SVG Version: 6.00 Build 43363)  -->
<!DOCTYPE svg PUBLIC "-//W3C//DTD SVG 1.1//EN" "http://www.w3.org/Graphics/SVG/1.1/DTD/svg11.dtd">
<svg version="1.1" id="update" xmlns="http://www.w3.org/2000/svg" xmlns:xlink="http://www.w3.org/1999/xlink" x="0px" y="0px"
	 width="50px" height="50px" viewBox="0 0 50 50" enable-background="new 0 0 50 50" xml:space="preserve">
<path fill="#716357" d="M31.293,11.592c-0.556-0.254-1.207-0.012-1.459,0.54c-0.254,0.552-0.013,1.205,0.539,1.459
	c4.572,2.102,7.527,6.701,7.527,11.715c0,7.113-5.787,12.9-12.9,12.9s-12.9-5.787-12.9-12.9c0-5.015,2.954-9.613,7.513-11.709
	l1.213-0.538l-1.827,5.481c-0.192,0.576,0.119,1.199,0.696,1.391c0.115,0.039,0.232,0.057,0.348,0.057
	c0.46,0,0.89-0.292,1.043-0.752l2.625-7.875c0.096-0.287,0.069-0.6-0.073-0.866c-0.143-0.267-0.388-0.462-0.68-0.542l-8.167-2.236
	c-0.586-0.161-1.191,0.184-1.352,0.771c-0.16,0.586,0.185,1.191,0.771,1.352l5.226,1.431l-0.728,0.323
	C13.357,14.052,9.9,19.436,9.9,25.307c0,8.326,6.774,15.1,15.1,15.1s15.1-6.773,15.1-15.1C40.1,19.436,36.643,14.052,31.293,11.592z
	"/>
</svg>
