<?xml version="1.0" encoding="utf-8"?>
<!-- Generator: Adobe Illustrator 14.0.0, SVG Export Plug-In . SVG Version: 6.00 Build 43363)  -->
<!DOCTYPE svg PUBLIC "-//W3C//DTD SVG 1.1//EN" "http://www.w3.org/Graphics/SVG/1.1/DTD/svg11.dtd">
<svg version="1.1" id="_x3F_" xmlns="http://www.w3.org/2000/svg" xmlns:xlink="http://www.w3.org/1999/xlink" x="0px" y="0px"
	 width="50px" height="50px" viewBox="0 0 50 50" enable-background="new 0 0 50 50" xml:space="preserve">
<circle fill="#716357" cx="25" cy="40" r="2"/>
<path fill="#716357" d="M25,35.15c-0.635,0-1.15-0.516-1.15-1.15v-2c0-2.821,1.747-4.084,3.635-5.028l0.446-0.219
	c2.214-1.073,5.918-2.87,5.918-7.753c0-5.376-3.474-8.85-8.85-8.85s-8.85,3.474-8.85,8.85c0,0.635-0.515,1.15-1.15,1.15
	s-1.15-0.515-1.15-1.15c0-6.669,4.481-11.15,11.15-11.15S36.15,12.331,36.15,19c0,6.324-4.873,8.687-7.215,9.822l-0.421,0.206
	C26.702,29.935,26.15,30.629,26.15,32v2C26.15,34.635,25.635,35.15,25,35.15L25,35.15z"/>
</svg>
