<?xml version="1.0" encoding="utf-8"?>
<!-- Generator: Adobe Illustrator 14.0.0, SVG Export Plug-In . SVG Version: 6.00 Build 43363)  -->
<!DOCTYPE svg PUBLIC "-//W3C//DTD SVG 1.1//EN" "http://www.w3.org/Graphics/SVG/1.1/DTD/svg11.dtd">
<svg version="1.1" id="G" xmlns="http://www.w3.org/2000/svg" xmlns:xlink="http://www.w3.org/1999/xlink" x="0px" y="0px"
	 width="50px" height="50px" viewBox="0 0 50 50" enable-background="new 0 0 50 50" xml:space="preserve">
<path fill="#716357" d="M50,23.9h-9.788C39.67,16.359,33.641,10.329,26.1,9.788V0h-2.2v9.788
	C16.359,10.329,10.329,16.359,9.788,23.9H0v2.2h9.788c0.542,7.541,6.571,13.57,14.112,14.112V50h2.2v-9.788
	c7.541-0.541,13.571-6.571,14.112-14.112H50V23.9z M25,38.068c-7.206,0-13.068-5.862-13.068-13.068
	c0-7.206,5.862-13.068,13.068-13.068c7.206,0,13.068,5.862,13.068,13.068C38.068,32.206,32.206,38.068,25,38.068z"/>
<path fill="#716357" d="M25,32.539c-4.158,0-7.541-3.382-7.541-7.539c0-4.158,3.383-7.54,7.541-7.54
	c2.388,0,4.587,1.113,6.034,3.054l-1.764,1.315C28.243,20.451,26.687,19.66,25,19.66c-2.945,0-5.34,2.396-5.34,5.34
	s2.396,5.34,5.34,5.34c1.571,0,3.029-0.687,4.053-1.895V26.1h-5.34v-2.2h7.539v5.293l-0.218,0.292
	C29.588,31.427,27.389,32.539,25,32.539L25,32.539z"/>
</svg>
